<svg xmlns="http://www.w3.org/2000/svg" viewBox="0 0 960 64" width="960" height="64" shape-rendering="crispEdges" role="img" aria-label="inventory"><style>@media (prefers-reduced-motion: reduce){*{animation:none!important}}</style><rect x="4" y="4" width="952" height="56" fill="#140d33"/><rect x="4" y="0" width="952" height="4" fill="#b9a7ff"/><rect x="4" y="60" width="952" height="4" fill="#b9a7ff"/><rect x="0" y="4" width="4" height="56" fill="#b9a7ff"/><rect x="956" y="4" width="4" height="56" fill="#b9a7ff"/><rect x="8" y="8" width="944" height="4" fill="#3a2a78"/><rect x="8" y="52" width="944" height="4" fill="#3a2a78"/><rect x="8" y="8" width="4" height="48" fill="#3a2a78"/><rect x="948" y="8" width="4" height="48" fill="#3a2a78"/><rect x="30" y="12" width="20" height="5" fill="#0d0820"/><rect x="25" y="17" width="5" height="5" fill="#0d0820"/><rect x="50" y="17" width="5" height="5" fill="#0d0820"/><rect x="20" y="22" width="40" height="5" fill="#0d0820"/><rect x="20" y="27" width="5" height="5" fill="#0d0820"/><rect x="25" y="27" width="30" height="5" fill="#3a2a78"/><rect x="55" y="27" width="5" height="5" fill="#0d0820"/><rect x="20" y="32" width="5" height="5" fill="#0d0820"/><rect x="25" y="32" width="10" height="5" fill="#3a2a78"/><rect x="35" y="32" width="10" height="5" fill="#ffcc4d"/><rect x="45" y="32" width="10" height="5" fill="#3a2a78"/><rect x="55" y="32" width="5" height="5" fill="#0d0820"/><rect x="20" y="37" width="5" height="5" fill="#0d0820"/><rect x="25" y="37" width="30" height="5" fill="#3a2a78"/><rect x="55" y="37" width="5" height="5" fill="#0d0820"/><rect x="20" y="42" width="5" height="5" fill="#0d0820"/><rect x="25" y="42" width="30" height="5" fill="#3a2a78"/><rect x="55" y="42" width="5" height="5" fill="#0d0820"/><rect x="25" y="47" width="30" height="5" fill="#0d0820"/><g shape-rendering="crispEdges"><rect x="84" y="22" width="20" height="4" fill="#3a2a78"/><rect x="92" y="26" width="4" height="4" fill="#3a2a78"/><rect x="92" y="30" width="4" height="4" fill="#3a2a78"/><rect x="92" y="34" width="4" height="4" fill="#3a2a78"/><rect x="92" y="38" width="4" height="4" fill="#3a2a78"/><rect x="92" y="42" width="4" height="4" fill="#3a2a78"/><rect x="84" y="46" width="20" height="4" fill="#3a2a78"/><rect x="108" y="22" width="4" height="4" fill="#3a2a78"/><rect x="124" y="22" width="4" height="4" fill="#3a2a78"/><rect x="108" y="26" width="8" height="4" fill="#3a2a78"/><rect x="124" y="26" width="4" height="4" fill="#3a2a78"/><rect x="108" y="30" width="4" height="4" fill="#3a2a78"/><rect x="116" y="30" width="4" height="4" fill="#3a2a78"/><rect x="124" y="30" width="4" height="4" fill="#3a2a78"/><rect x="108" y="34" width="4" height="4" fill="#3a2a78"/><rect x="120" y="34" width="8" height="4" fill="#3a2a78"/><rect x="108" y="38" width="4" height="4" fill="#3a2a78"/><rect x="124" y="38" width="4" height="4" fill="#3a2a78"/><rect x="108" y="42" width="4" height="4" fill="#3a2a78"/><rect x="124" y="42" width="4" height="4" fill="#3a2a78"/><rect x="108" y="46" width="4" height="4" fill="#3a2a78"/><rect x="124" y="46" width="4" height="4" fill="#3a2a78"/><rect x="132" y="22" width="4" height="4" fill="#3a2a78"/><rect x="148" y="22" width="4" height="4" fill="#3a2a78"/><rect x="132" y="26" width="4" height="4" fill="#3a2a78"/><rect x="148" y="26" width="4" height="4" fill="#3a2a78"/><rect x="132" y="30" width="4" height="4" fill="#3a2a78"/><rect x="148" y="30" width="4" height="4" fill="#3a2a78"/><rect x="132" y="34" width="4" height="4" fill="#3a2a78"/><rect x="148" y="34" width="4" height="4" fill="#3a2a78"/><rect x="132" y="38" width="4" height="4" fill="#3a2a78"/><rect x="148" y="38" width="4" height="4" fill="#3a2a78"/><rect x="136" y="42" width="4" height="4" fill="#3a2a78"/><rect x="144" y="42" width="4" height="4" fill="#3a2a78"/><rect x="140" y="46" width="4" height="4" fill="#3a2a78"/><rect x="156" y="22" width="20" height="4" fill="#3a2a78"/><rect x="156" y="26" width="4" height="4" fill="#3a2a78"/><rect x="156" y="30" width="4" height="4" fill="#3a2a78"/><rect x="156" y="34" width="16" height="4" fill="#3a2a78"/><rect x="156" y="38" width="4" height="4" fill="#3a2a78"/><rect x="156" y="42" width="4" height="4" fill="#3a2a78"/><rect x="156" y="46" width="20" height="4" fill="#3a2a78"/><rect x="180" y="22" width="4" height="4" fill="#3a2a78"/><rect x="196" y="22" width="4" height="4" fill="#3a2a78"/><rect x="180" y="26" width="8" height="4" fill="#3a2a78"/><rect x="196" y="26" width="4" height="4" fill="#3a2a78"/><rect x="180" y="30" width="4" height="4" fill="#3a2a78"/><rect x="188" y="30" width="4" height="4" fill="#3a2a78"/><rect x="196" y="30" width="4" height="4" fill="#3a2a78"/><rect x="180" y="34" width="4" height="4" fill="#3a2a78"/><rect x="192" y="34" width="8" height="4" fill="#3a2a78"/><rect x="180" y="38" width="4" height="4" fill="#3a2a78"/><rect x="196" y="38" width="4" height="4" fill="#3a2a78"/><rect x="180" y="42" width="4" height="4" fill="#3a2a78"/><rect x="196" y="42" width="4" height="4" fill="#3a2a78"/><rect x="180" y="46" width="4" height="4" fill="#3a2a78"/><rect x="196" y="46" width="4" height="4" fill="#3a2a78"/><rect x="204" y="22" width="20" height="4" fill="#3a2a78"/><rect x="212" y="26" width="4" height="4" fill="#3a2a78"/><rect x="212" y="30" width="4" height="4" fill="#3a2a78"/><rect x="212" y="34" width="4" height="4" fill="#3a2a78"/><rect x="212" y="38" width="4" height="4" fill="#3a2a78"/><rect x="212" y="42" width="4" height="4" fill="#3a2a78"/><rect x="212" y="46" width="4" height="4" fill="#3a2a78"/><rect x="232" y="22" width="12" height="4" fill="#3a2a78"/><rect x="228" y="26" width="4" height="4" fill="#3a2a78"/><rect x="244" y="26" width="4" height="4" fill="#3a2a78"/><rect x="228" y="30" width="4" height="4" fill="#3a2a78"/><rect x="244" y="30" width="4" height="4" fill="#3a2a78"/><rect x="228" y="34" width="4" height="4" fill="#3a2a78"/><rect x="244" y="34" width="4" height="4" fill="#3a2a78"/><rect x="228" y="38" width="4" height="4" fill="#3a2a78"/><rect x="244" y="38" width="4" height="4" fill="#3a2a78"/><rect x="228" y="42" width="4" height="4" fill="#3a2a78"/><rect x="244" y="42" width="4" height="4" fill="#3a2a78"/><rect x="232" y="46" width="12" height="4" fill="#3a2a78"/><rect x="252" y="22" width="16" height="4" fill="#3a2a78"/><rect x="252" y="26" width="4" height="4" fill="#3a2a78"/><rect x="268" y="26" width="4" height="4" fill="#3a2a78"/><rect x="252" y="30" width="4" height="4" fill="#3a2a78"/><rect x="268" y="30" width="4" height="4" fill="#3a2a78"/><rect x="252" y="34" width="16" height="4" fill="#3a2a78"/><rect x="252" y="38" width="4" height="4" fill="#3a2a78"/><rect x="260" y="38" width="4" height="4" fill="#3a2a78"/><rect x="252" y="42" width="4" height="4" fill="#3a2a78"/><rect x="264" y="42" width="4" height="4" fill="#3a2a78"/><rect x="252" y="46" width="4" height="4" fill="#3a2a78"/><rect x="268" y="46" width="4" height="4" fill="#3a2a78"/><rect x="276" y="22" width="4" height="4" fill="#3a2a78"/><rect x="292" y="22" width="4" height="4" fill="#3a2a78"/><rect x="276" y="26" width="4" height="4" fill="#3a2a78"/><rect x="292" y="26" width="4" height="4" fill="#3a2a78"/><rect x="280" y="30" width="4" height="4" fill="#3a2a78"/><rect x="288" y="30" width="4" height="4" fill="#3a2a78"/><rect x="284" y="34" width="4" height="4" fill="#3a2a78"/><rect x="284" y="38" width="4" height="4" fill="#3a2a78"/><rect x="284" y="42" width="4" height="4" fill="#3a2a78"/><rect x="284" y="46" width="4" height="4" fill="#3a2a78"/><rect x="80" y="18" width="20" height="4" fill="#ffcc4d"/><rect x="88" y="22" width="4" height="4" fill="#ffcc4d"/><rect x="88" y="26" width="4" height="4" fill="#ffcc4d"/><rect x="88" y="30" width="4" height="4" fill="#ffcc4d"/><rect x="88" y="34" width="4" height="4" fill="#ffcc4d"/><rect x="88" y="38" width="4" height="4" fill="#ffcc4d"/><rect x="80" y="42" width="20" height="4" fill="#ffcc4d"/><rect x="104" y="18" width="4" height="4" fill="#ffcc4d"/><rect x="120" y="18" width="4" height="4" fill="#ffcc4d"/><rect x="104" y="22" width="8" height="4" fill="#ffcc4d"/><rect x="120" y="22" width="4" height="4" fill="#ffcc4d"/><rect x="104" y="26" width="4" height="4" fill="#ffcc4d"/><rect x="112" y="26" width="4" height="4" fill="#ffcc4d"/><rect x="120" y="26" width="4" height="4" fill="#ffcc4d"/><rect x="104" y="30" width="4" height="4" fill="#ffcc4d"/><rect x="116" y="30" width="8" height="4" fill="#ffcc4d"/><rect x="104" y="34" width="4" height="4" fill="#ffcc4d"/><rect x="120" y="34" width="4" height="4" fill="#ffcc4d"/><rect x="104" y="38" width="4" height="4" fill="#ffcc4d"/><rect x="120" y="38" width="4" height="4" fill="#ffcc4d"/><rect x="104" y="42" width="4" height="4" fill="#ffcc4d"/><rect x="120" y="42" width="4" height="4" fill="#ffcc4d"/><rect x="128" y="18" width="4" height="4" fill="#ffcc4d"/><rect x="144" y="18" width="4" height="4" fill="#ffcc4d"/><rect x="128" y="22" width="4" height="4" fill="#ffcc4d"/><rect x="144" y="22" width="4" height="4" fill="#ffcc4d"/><rect x="128" y="26" width="4" height="4" fill="#ffcc4d"/><rect x="144" y="26" width="4" height="4" fill="#ffcc4d"/><rect x="128" y="30" width="4" height="4" fill="#ffcc4d"/><rect x="144" y="30" width="4" height="4" fill="#ffcc4d"/><rect x="128" y="34" width="4" height="4" fill="#ffcc4d"/><rect x="144" y="34" width="4" height="4" fill="#ffcc4d"/><rect x="132" y="38" width="4" height="4" fill="#ffcc4d"/><rect x="140" y="38" width="4" height="4" fill="#ffcc4d"/><rect x="136" y="42" width="4" height="4" fill="#ffcc4d"/><rect x="152" y="18" width="20" height="4" fill="#ffcc4d"/><rect x="152" y="22" width="4" height="4" fill="#ffcc4d"/><rect x="152" y="26" width="4" height="4" fill="#ffcc4d"/><rect x="152" y="30" width="16" height="4" fill="#ffcc4d"/><rect x="152" y="34" width="4" height="4" fill="#ffcc4d"/><rect x="152" y="38" width="4" height="4" fill="#ffcc4d"/><rect x="152" y="42" width="20" height="4" fill="#ffcc4d"/><rect x="176" y="18" width="4" height="4" fill="#ffcc4d"/><rect x="192" y="18" width="4" height="4" fill="#ffcc4d"/><rect x="176" y="22" width="8" height="4" fill="#ffcc4d"/><rect x="192" y="22" width="4" height="4" fill="#ffcc4d"/><rect x="176" y="26" width="4" height="4" fill="#ffcc4d"/><rect x="184" y="26" width="4" height="4" fill="#ffcc4d"/><rect x="192" y="26" width="4" height="4" fill="#ffcc4d"/><rect x="176" y="30" width="4" height="4" fill="#ffcc4d"/><rect x="188" y="30" width="8" height="4" fill="#ffcc4d"/><rect x="176" y="34" width="4" height="4" fill="#ffcc4d"/><rect x="192" y="34" width="4" height="4" fill="#ffcc4d"/><rect x="176" y="38" width="4" height="4" fill="#ffcc4d"/><rect x="192" y="38" width="4" height="4" fill="#ffcc4d"/><rect x="176" y="42" width="4" height="4" fill="#ffcc4d"/><rect x="192" y="42" width="4" height="4" fill="#ffcc4d"/><rect x="200" y="18" width="20" height="4" fill="#ffcc4d"/><rect x="208" y="22" width="4" height="4" fill="#ffcc4d"/><rect x="208" y="26" width="4" height="4" fill="#ffcc4d"/><rect x="208" y="30" width="4" height="4" fill="#ffcc4d"/><rect x="208" y="34" width="4" height="4" fill="#ffcc4d"/><rect x="208" y="38" width="4" height="4" fill="#ffcc4d"/><rect x="208" y="42" width="4" height="4" fill="#ffcc4d"/><rect x="228" y="18" width="12" height="4" fill="#ffcc4d"/><rect x="224" y="22" width="4" height="4" fill="#ffcc4d"/><rect x="240" y="22" width="4" height="4" fill="#ffcc4d"/><rect x="224" y="26" width="4" height="4" fill="#ffcc4d"/><rect x="240" y="26" width="4" height="4" fill="#ffcc4d"/><rect x="224" y="30" width="4" height="4" fill="#ffcc4d"/><rect x="240" y="30" width="4" height="4" fill="#ffcc4d"/><rect x="224" y="34" width="4" height="4" fill="#ffcc4d"/><rect x="240" y="34" width="4" height="4" fill="#ffcc4d"/><rect x="224" y="38" width="4" height="4" fill="#ffcc4d"/><rect x="240" y="38" width="4" height="4" fill="#ffcc4d"/><rect x="228" y="42" width="12" height="4" fill="#ffcc4d"/><rect x="248" y="18" width="16" height="4" fill="#ffcc4d"/><rect x="248" y="22" width="4" height="4" fill="#ffcc4d"/><rect x="264" y="22" width="4" height="4" fill="#ffcc4d"/><rect x="248" y="26" width="4" height="4" fill="#ffcc4d"/><rect x="264" y="26" width="4" height="4" fill="#ffcc4d"/><rect x="248" y="30" width="16" height="4" fill="#ffcc4d"/><rect x="248" y="34" width="4" height="4" fill="#ffcc4d"/><rect x="256" y="34" width="4" height="4" fill="#ffcc4d"/><rect x="248" y="38" width="4" height="4" fill="#ffcc4d"/><rect x="260" y="38" width="4" height="4" fill="#ffcc4d"/><rect x="248" y="42" width="4" height="4" fill="#ffcc4d"/><rect x="264" y="42" width="4" height="4" fill="#ffcc4d"/><rect x="272" y="18" width="4" height="4" fill="#ffcc4d"/><rect x="288" y="18" width="4" height="4" fill="#ffcc4d"/><rect x="272" y="22" width="4" height="4" fill="#ffcc4d"/><rect x="288" y="22" width="4" height="4" fill="#ffcc4d"/><rect x="276" y="26" width="4" height="4" fill="#ffcc4d"/><rect x="284" y="26" width="4" height="4" fill="#ffcc4d"/><rect x="280" y="30" width="4" height="4" fill="#ffcc4d"/><rect x="280" y="34" width="4" height="4" fill="#ffcc4d"/><rect x="280" y="38" width="4" height="4" fill="#ffcc4d"/><rect x="280" y="42" width="4" height="4" fill="#ffcc4d"/></g><rect x="316" y="30" width="6" height="4" fill="#3a2a78"/><rect x="328" y="30" width="6" height="4" fill="#3a2a78"/><rect x="340" y="30" width="6" height="4" fill="#3a2a78"/><rect x="352" y="30" width="6" height="4" fill="#3a2a78"/><rect x="364" y="30" width="6" height="4" fill="#3a2a78"/><rect x="376" y="30" width="6" height="4" fill="#3a2a78"/><rect x="388" y="30" width="6" height="4" fill="#3a2a78"/><rect x="400" y="30" width="6" height="4" fill="#3a2a78"/><rect x="412" y="30" width="6" height="4" fill="#3a2a78"/><rect x="424" y="30" width="6" height="4" fill="#3a2a78"/><rect x="436" y="30" width="6" height="4" fill="#3a2a78"/><rect x="448" y="30" width="6" height="4" fill="#3a2a78"/><rect x="460" y="30" width="6" height="4" fill="#3a2a78"/><rect x="472" y="30" width="6" height="4" fill="#3a2a78"/><rect x="484" y="30" width="6" height="4" fill="#3a2a78"/><rect x="496" y="30" width="6" height="4" fill="#3a2a78"/><rect x="508" y="30" width="6" height="4" fill="#3a2a78"/><rect x="520" y="30" width="6" height="4" fill="#3a2a78"/><rect x="532" y="30" width="6" height="4" fill="#3a2a78"/><rect x="544" y="30" width="6" height="4" fill="#3a2a78"/><rect x="556" y="30" width="6" height="4" fill="#3a2a78"/><rect x="568" y="30" width="6" height="4" fill="#3a2a78"/><rect x="580" y="30" width="6" height="4" fill="#3a2a78"/><rect x="592" y="30" width="6" height="4" fill="#3a2a78"/><rect x="604" y="30" width="6" height="4" fill="#3a2a78"/><rect x="616" y="30" width="6" height="4" fill="#3a2a78"/><rect x="628" y="30" width="6" height="4" fill="#3a2a78"/><rect x="640" y="30" width="6" height="4" fill="#3a2a78"/><rect x="652" y="30" width="6" height="4" fill="#3a2a78"/><rect x="664" y="30" width="6" height="4" fill="#3a2a78"/><rect x="676" y="30" width="6" height="4" fill="#3a2a78"/><rect x="688" y="30" width="6" height="4" fill="#3a2a78"/><rect x="700" y="30" width="6" height="4" fill="#3a2a78"/><rect x="712" y="30" width="6" height="4" fill="#3a2a78"/><rect x="724" y="30" width="6" height="4" fill="#3a2a78"/><rect x="736" y="30" width="6" height="4" fill="#3a2a78"/><rect x="748" y="30" width="6" height="4" fill="#3a2a78"/><rect x="760" y="30" width="6" height="4" fill="#3a2a78"/><rect x="772" y="30" width="6" height="4" fill="#3a2a78"/><rect x="784" y="30" width="6" height="4" fill="#3a2a78"/><rect x="796" y="30" width="6" height="4" fill="#3a2a78"/><rect x="808" y="30" width="6" height="4" fill="#3a2a78"/><rect x="820" y="30" width="6" height="4" fill="#3a2a78"/><rect x="832" y="30" width="6" height="4" fill="#3a2a78"/><rect x="844" y="30" width="6" height="4" fill="#3a2a78"/><rect x="856" y="30" width="6" height="4" fill="#3a2a78"/><rect x="868" y="30" width="6" height="4" fill="#3a2a78"/><rect x="880" y="30" width="6" height="4" fill="#3a2a78"/><rect x="892" y="30" width="6" height="4" fill="#3a2a78"/><rect x="904" y="30" width="6" height="4" fill="#3a2a78"/><rect x="916" y="30" width="6" height="4" fill="#3a2a78"/><rect x="928" y="30" width="6" height="4" fill="#3a2a78"/></svg>